<svg xmlns="http://www.w3.org/2000/svg" xmlns:xlink="http://www.w3.org/1999/xlink" width="1080" zoomAndPan="magnify" viewBox="0 0 810 404.99999" height="540" preserveAspectRatio="xMidYMid meet" version="1.2"><defs><clipPath id="57fbfec143"><path d="M 13.832031 4.359375 L 409.832031 4.359375 L 409.832031 400.359375 L 13.832031 400.359375 Z M 13.832031 4.359375 "/></clipPath><clipPath id="5ae6b2b8dc"><path d="M 21.058594 11.585938 L 402.808594 11.585938 L 402.808594 393.335938 L 21.058594 393.335938 Z M 21.058594 11.585938 "/></clipPath><clipPath id="f6b8adb7a7"><path d="M 24.027344 14.554688 L 399.777344 14.554688 L 399.777344 390.304688 L 24.027344 390.304688 Z M 24.027344 14.554688 "/></clipPath><clipPath id="9ba4894a0f"><path d="M 31.4375 21.960938 L 392.1875 21.960938 L 392.1875 382.710938 L 31.4375 382.710938 Z M 31.4375 21.960938 "/></clipPath><clipPath id="2496a81ea4"><path d="M 116.785156 71.871094 L 191.984375 71.871094 L 191.984375 107.507812 L 116.785156 107.507812 Z M 116.785156 71.871094 "/></clipPath><clipPath id="d087b9dabc"><path d="M 232.421875 71.871094 L 307.621094 71.871094 L 307.621094 107.507812 L 232.421875 107.507812 Z M 232.421875 71.871094 "/></clipPath><clipPath id="2a94de9921"><path d="M 309.355469 109.730469 L 345.34375 109.730469 L 345.34375 145.074219 L 309.355469 145.074219 Z M 309.355469 109.730469 "/></clipPath><clipPath id="e0f012b598"><path d="M 116.785156 146.96875 L 191.984375 146.96875 L 191.984375 182.605469 L 116.785156 182.605469 Z M 116.785156 146.96875 "/></clipPath><clipPath id="4240b9506e"><path d="M 232.421875 146.96875 L 307.621094 146.96875 L 307.621094 182.605469 L 232.421875 182.605469 Z M 232.421875 146.96875 "/></clipPath><clipPath id="48f005e0d4"><path d="M 194.210938 109.730469 L 230.199219 109.730469 L 230.199219 145.074219 L 194.210938 145.074219 Z M 194.210938 109.730469 "/></clipPath><clipPath id="614c771e32"><path d="M 79.289062 109.730469 L 115.277344 109.730469 L 115.277344 145.074219 L 79.289062 145.074219 Z M 79.289062 109.730469 "/></clipPath><clipPath id="b3bc359714"><path d="M 309.242188 184.828125 L 345.230469 184.828125 L 345.230469 220.171875 L 309.242188 220.171875 Z M 309.242188 184.828125 "/></clipPath><clipPath id="fb6995ef33"><path d="M 116.671875 222.066406 L 191.871094 222.066406 L 191.871094 257.703125 L 116.671875 257.703125 Z M 116.671875 222.066406 "/></clipPath><clipPath id="d97ec9fbaf"><path d="M 232.308594 222.066406 L 307.507812 222.066406 L 307.507812 257.703125 L 232.308594 257.703125 Z M 232.308594 222.066406 "/></clipPath><clipPath id="202c523bf1"><path d="M 194.09375 184.828125 L 230.082031 184.828125 L 230.082031 220.171875 L 194.09375 220.171875 Z M 194.09375 184.828125 "/></clipPath><clipPath id="be6965c29a"><path d="M 79.175781 184.828125 L 115.164062 184.828125 L 115.164062 220.171875 L 79.175781 220.171875 Z M 79.175781 184.828125 "/></clipPath><clipPath id="939a845c11"><path d="M 309.128906 259.925781 L 345.117188 259.925781 L 345.117188 295.269531 L 309.128906 295.269531 Z M 309.128906 259.925781 "/></clipPath><clipPath id="55239ef229"><path d="M 116.558594 297.167969 L 191.757812 297.167969 L 191.757812 332.800781 L 116.558594 332.800781 Z M 116.558594 297.167969 "/></clipPath><clipPath id="3c5cbd968e"><path d="M 232.191406 297.167969 L 307.390625 297.167969 L 307.390625 332.800781 L 232.191406 332.800781 Z M 232.191406 297.167969 "/></clipPath><clipPath id="84ff89d9aa"><path d="M 193.980469 259.925781 L 229.96875 259.925781 L 229.96875 295.269531 L 193.980469 295.269531 Z M 193.980469 259.925781 "/></clipPath><clipPath id="e91c11b299"><path d="M 79.0625 259.925781 L 115.050781 259.925781 L 115.050781 295.269531 L 79.0625 295.269531 Z M 79.0625 259.925781 "/></clipPath></defs><g id="10ff4cfce4"><g style="fill:#ff5750;fill-opacity:1;"><g transform="translate(443.989973, 336.630798)"><path style="stroke:none" d="M 12.375 0 L 6.21875 0 C 5.207031 0 4.703125 -0.503906 4.703125 -1.515625 L 4.703125 -44.984375 C 4.703125 -45.992188 5.207031 -46.5 6.21875 -46.5 L 23.4375 -46.5 C 27.195312 -46.5 30.132812 -45.460938 32.25 -43.390625 C 34.375 -41.316406 35.4375 -38.398438 35.4375 -34.640625 L 35.4375 -29 C 35.4375 -23.550781 33.289062 -19.9375 29 -18.15625 L 29 -17.859375 L 36.75 -1.734375 C 37.175781 -0.578125 36.765625 0 35.515625 0 L 29.65625 0 C 28.789062 0 28.164062 -0.09375 27.78125 -0.28125 C 27.394531 -0.476562 27.078125 -0.890625 26.828125 -1.515625 L 19.59375 -17.140625 L 14.75 -17.140625 C 14.175781 -17.140625 13.890625 -16.875 13.890625 -16.34375 L 13.890625 -1.515625 C 13.890625 -0.503906 13.382812 0 12.375 0 Z M 14.6875 -24.515625 L 21.765625 -24.515625 C 23.304688 -24.515625 24.4375 -24.835938 25.15625 -25.484375 C 25.882812 -26.140625 26.25 -27.191406 26.25 -28.640625 L 26.25 -34.28125 C 26.25 -35.78125 25.882812 -36.863281 25.15625 -37.53125 C 24.4375 -38.207031 23.304688 -38.546875 21.765625 -38.546875 L 14.6875 -38.546875 C 14.15625 -38.546875 13.890625 -38.28125 13.890625 -37.75 L 13.890625 -25.3125 C 13.890625 -24.78125 14.15625 -24.515625 14.6875 -24.515625 Z M 14.6875 -24.515625 "/></g></g><g style="fill:#ff5750;fill-opacity:1;"><g transform="translate(483.553192, 336.630798)"><path style="stroke:none" d="M 21.625 0 L 15.1875 0 C 11.375 0 8.429688 -1.007812 6.359375 -3.03125 C 4.285156 -5.0625 3.25 -7.984375 3.25 -11.796875 L 3.25 -25.09375 C 3.25 -28.90625 4.285156 -31.820312 6.359375 -33.84375 C 8.429688 -35.875 11.375 -36.890625 15.1875 -36.890625 L 21.625 -36.890625 C 25.382812 -36.890625 28.3125 -35.863281 30.40625 -33.8125 C 32.507812 -31.757812 33.5625 -28.851562 33.5625 -25.09375 L 33.5625 -11.796875 C 33.5625 -8.023438 32.507812 -5.113281 30.40625 -3.0625 C 28.3125 -1.019531 25.382812 0 21.625 0 Z M 16.5625 -7.890625 L 20.25 -7.890625 C 21.789062 -7.890625 22.882812 -8.203125 23.53125 -8.828125 C 24.1875 -9.453125 24.515625 -10.535156 24.515625 -12.078125 L 24.515625 -24.8125 C 24.515625 -26.351562 24.1875 -27.4375 23.53125 -28.0625 C 22.882812 -28.6875 21.789062 -29 20.25 -29 L 16.5625 -29 C 15.019531 -29 13.9375 -28.6875 13.3125 -28.0625 C 12.6875 -27.4375 12.375 -26.351562 12.375 -24.8125 L 12.375 -12.078125 C 12.375 -10.535156 12.6875 -9.453125 13.3125 -8.828125 C 13.9375 -8.203125 15.019531 -7.890625 16.5625 -7.890625 Z M 16.5625 -7.890625 "/></g></g><g style="fill:#ff5750;fill-opacity:1;"><g transform="translate(520.367963, 336.630798)"><path style="stroke:none" d="M 27.484375 -6.4375 L 27.484375 -1.453125 C 27.484375 -0.921875 27.375 -0.546875 27.15625 -0.328125 C 26.9375 -0.109375 26.539062 0 25.96875 0 L 15.1875 0 C 11.375 0 8.429688 -1.007812 6.359375 -3.03125 C 4.285156 -5.0625 3.25 -7.984375 3.25 -11.796875 L 3.25 -25.09375 C 3.25 -28.90625 4.285156 -31.820312 6.359375 -33.84375 C 8.429688 -35.875 11.375 -36.890625 15.1875 -36.890625 L 25.96875 -36.890625 C 26.976562 -36.890625 27.484375 -36.382812 27.484375 -35.375 L 27.484375 -30.375 C 27.484375 -29.84375 27.375 -29.46875 27.15625 -29.25 C 26.9375 -29.039062 26.539062 -28.9375 25.96875 -28.9375 L 16.640625 -28.9375 C 15.140625 -28.9375 14.0625 -28.609375 13.40625 -27.953125 C 12.757812 -27.304688 12.4375 -26.207031 12.4375 -24.65625 L 12.4375 -12.21875 C 12.4375 -10.675781 12.757812 -9.578125 13.40625 -8.921875 C 14.0625 -8.273438 15.140625 -7.953125 16.640625 -7.953125 L 25.96875 -7.953125 C 26.976562 -7.953125 27.484375 -7.445312 27.484375 -6.4375 Z M 27.484375 -6.4375 "/></g></g><g style="fill:#ff5750;fill-opacity:1;"><g transform="translate(550.094623, 336.630798)"><path style="stroke:none" d="M 25.09375 -36.890625 L 32.109375 -36.890625 C 32.691406 -36.890625 33.078125 -36.71875 33.265625 -36.375 C 33.460938 -36.039062 33.390625 -35.609375 33.046875 -35.078125 L 23.4375 -19.234375 L 23.4375 -18.953125 L 33.484375 -1.8125 C 33.773438 -1.320312 33.800781 -0.894531 33.5625 -0.53125 C 33.320312 -0.175781 32.890625 0 32.265625 0 L 26.03125 0 C 25.21875 0 24.628906 -0.09375 24.265625 -0.28125 C 23.898438 -0.476562 23.523438 -0.890625 23.140625 -1.515625 L 13.953125 -17.640625 C 13.523438 -18.421875 13.523438 -19.21875 13.953125 -20.03125 L 22.640625 -35.4375 C 23.171875 -36.40625 23.988281 -36.890625 25.09375 -36.890625 Z M 11.640625 0 L 5.5 0 C 4.488281 0 3.984375 -0.503906 3.984375 -1.515625 L 3.984375 -49.328125 C 3.984375 -50.335938 4.488281 -50.84375 5.5 -50.84375 L 11.640625 -50.84375 C 12.648438 -50.84375 13.15625 -50.335938 13.15625 -49.328125 L 13.15625 -1.515625 C 13.15625 -0.503906 12.648438 0 11.640625 0 Z M 11.640625 0 "/></g></g><g style="fill:#ff5750;fill-opacity:1;"><g transform="translate(584.233272, 336.630798)"><path style="stroke:none" d="M 31.171875 0 L 15.1875 0 C 11.375 0 8.429688 -1.007812 6.359375 -3.03125 C 4.285156 -5.0625 3.25 -7.984375 3.25 -11.796875 L 3.25 -25.09375 C 3.25 -28.90625 4.285156 -31.820312 6.359375 -33.84375 C 8.429688 -35.875 11.375 -36.890625 15.1875 -36.890625 L 20.90625 -36.890625 C 24.707031 -36.890625 27.644531 -35.875 29.71875 -33.84375 C 31.800781 -31.820312 32.84375 -28.90625 32.84375 -25.09375 L 32.84375 -15.90625 C 32.84375 -14.894531 32.332031 -14.390625 31.3125 -14.390625 L 13.15625 -14.390625 C 12.582031 -14.390625 12.296875 -14.125 12.296875 -13.59375 L 12.296875 -12 C 12.296875 -10.507812 12.617188 -9.4375 13.265625 -8.78125 C 13.921875 -8.132812 15.019531 -7.8125 16.5625 -7.8125 L 31.171875 -7.8125 C 32.179688 -7.8125 32.6875 -7.28125 32.6875 -6.21875 L 32.6875 -1.453125 C 32.6875 -0.921875 32.578125 -0.546875 32.359375 -0.328125 C 32.148438 -0.109375 31.753906 0 31.171875 0 Z M 13.15625 -20.546875 L 23 -20.546875 C 23.53125 -20.546875 23.796875 -20.8125 23.796875 -21.34375 L 23.796875 -24.8125 C 23.796875 -26.351562 23.484375 -27.4375 22.859375 -28.0625 C 22.234375 -28.6875 21.144531 -29 19.59375 -29 L 16.5625 -29 C 15.019531 -29 13.9375 -28.6875 13.3125 -28.0625 C 12.6875 -27.4375 12.375 -26.351562 12.375 -24.8125 L 12.375 -21.34375 C 12.375 -20.8125 12.632812 -20.546875 13.15625 -20.546875 Z M 13.15625 -20.546875 "/></g></g><g style="fill:#ff5750;fill-opacity:1;"><g transform="translate(619.963116, 336.630798)"><path style="stroke:none" d="M 11.640625 0 L 5.5 0 C 4.488281 0 3.984375 -0.503906 3.984375 -1.515625 L 3.984375 -35.375 C 3.984375 -36.382812 4.488281 -36.890625 5.5 -36.890625 L 11.640625 -36.890625 C 12.648438 -36.890625 13.15625 -36.382812 13.15625 -35.375 L 13.15625 -32.90625 L 13.453125 -32.90625 C 13.984375 -34.207031 14.921875 -35.195312 16.265625 -35.875 C 17.617188 -36.550781 19.046875 -36.890625 20.546875 -36.890625 L 23.140625 -36.890625 C 24.109375 -36.890625 24.59375 -36.382812 24.59375 -35.375 L 24.59375 -30.375 C 24.59375 -29.800781 24.484375 -29.40625 24.265625 -29.1875 C 24.046875 -28.96875 23.671875 -28.882812 23.140625 -28.9375 L 18.15625 -28.9375 C 14.820312 -28.9375 13.15625 -27.054688 13.15625 -23.296875 L 13.15625 -1.515625 C 13.15625 -0.503906 12.648438 0 11.640625 0 Z M 11.640625 0 "/></g></g><g style="fill:#ff5750;fill-opacity:1;"><g transform="translate(645.20546, 336.630798)"><path style="stroke:none" d="M 13.953125 -7.953125 L 21.34375 -7.953125 C 22.882812 -7.953125 23.976562 -8.273438 24.625 -8.921875 C 25.28125 -9.578125 25.609375 -10.675781 25.609375 -12.21875 L 25.609375 -24.8125 C 25.609375 -26.351562 25.28125 -27.445312 24.625 -28.09375 C 23.976562 -28.75 22.882812 -29.078125 21.34375 -29.078125 L 18.15625 -29.078125 C 14.820312 -29.078125 13.15625 -27.242188 13.15625 -23.578125 L 13.15625 -8.75 C 13.15625 -8.21875 13.421875 -7.953125 13.953125 -7.953125 Z M 3.984375 -1.515625 L 3.984375 -49.328125 C 3.984375 -50.335938 4.488281 -50.84375 5.5 -50.84375 L 11.640625 -50.84375 C 12.648438 -50.84375 13.15625 -50.335938 13.15625 -49.328125 L 13.15625 -33.046875 L 13.453125 -33.046875 C 13.984375 -34.347656 14.921875 -35.335938 16.265625 -36.015625 C 17.617188 -36.691406 19.046875 -37.03125 20.546875 -37.03125 L 22.859375 -37.03125 C 26.660156 -37.03125 29.597656 -36.015625 31.671875 -33.984375 C 33.753906 -31.960938 34.796875 -29.050781 34.796875 -25.25 L 34.796875 -11.796875 C 34.796875 -7.984375 33.753906 -5.0625 31.671875 -3.03125 C 29.597656 -1.007812 26.660156 0 22.859375 0 L 5.5 0 C 4.488281 0 3.984375 -0.503906 3.984375 -1.515625 Z M 3.984375 -1.515625 "/></g></g><g style="fill:#ff5750;fill-opacity:1;"><g transform="translate(683.249821, 336.630798)"><path style="stroke:none" d="M 21.625 0 L 15.1875 0 C 11.375 0 8.429688 -1.007812 6.359375 -3.03125 C 4.285156 -5.0625 3.25 -7.984375 3.25 -11.796875 L 3.25 -25.09375 C 3.25 -28.90625 4.285156 -31.820312 6.359375 -33.84375 C 8.429688 -35.875 11.375 -36.890625 15.1875 -36.890625 L 21.625 -36.890625 C 25.382812 -36.890625 28.3125 -35.863281 30.40625 -33.8125 C 32.507812 -31.757812 33.5625 -28.851562 33.5625 -25.09375 L 33.5625 -11.796875 C 33.5625 -8.023438 32.507812 -5.113281 30.40625 -3.0625 C 28.3125 -1.019531 25.382812 0 21.625 0 Z M 16.5625 -7.890625 L 20.25 -7.890625 C 21.789062 -7.890625 22.882812 -8.203125 23.53125 -8.828125 C 24.1875 -9.453125 24.515625 -10.535156 24.515625 -12.078125 L 24.515625 -24.8125 C 24.515625 -26.351562 24.1875 -27.4375 23.53125 -28.0625 C 22.882812 -28.6875 21.789062 -29 20.25 -29 L 16.5625 -29 C 15.019531 -29 13.9375 -28.6875 13.3125 -28.0625 C 12.6875 -27.4375 12.375 -26.351562 12.375 -24.8125 L 12.375 -12.078125 C 12.375 -10.535156 12.6875 -9.453125 13.3125 -8.828125 C 13.9375 -8.203125 15.019531 -7.890625 16.5625 -7.890625 Z M 16.5625 -7.890625 "/></g></g><g style="fill:#ff5750;fill-opacity:1;"><g transform="translate(720.064573, 336.630798)"><path style="stroke:none" d="M 9.984375 12.21875 L 5.359375 12.21875 C 4.390625 12.21875 3.90625 11.6875 3.90625 10.625 L 3.90625 5.78125 C 3.90625 4.71875 4.390625 4.1875 5.359375 4.1875 L 6.875 4.1875 C 9.90625 4.1875 11.960938 3.765625 13.046875 2.921875 C 14.140625 2.078125 14.972656 0.453125 15.546875 -1.953125 L 11.71875 -1.953125 C 10.800781 -1.953125 10.195312 -2.457031 9.90625 -3.46875 L 1.453125 -35.375 C 1.160156 -36.382812 1.519531 -36.890625 2.53125 -36.890625 L 8.96875 -36.890625 C 9.9375 -36.890625 10.539062 -36.382812 10.78125 -35.375 L 17 -8.671875 L 17.28125 -8.671875 L 23.4375 -35.375 C 23.625 -36.382812 24.226562 -36.890625 25.25 -36.890625 L 31.3125 -36.890625 C 32.519531 -36.890625 33.003906 -36.359375 32.765625 -35.296875 L 23.9375 0 C 22.875 4 21.234375 7.035156 19.015625 9.109375 C 16.796875 11.179688 13.785156 12.21875 9.984375 12.21875 Z M 9.984375 12.21875 "/></g></g><g clip-rule="nonzero" clip-path="url(#57fbfec143)"><path style=" stroke:none;fill-rule:nonzero;fill:#ff5750;fill-opacity:1;" d="M 293.851562 4.351562 L 129.816406 4.351562 L 13.828125 120.339844 L 13.828125 284.375 L 129.816406 400.363281 L 293.851562 400.363281 L 409.839844 284.375 L 409.839844 120.339844 Z M 400.355469 280.445312 L 289.921875 390.878906 L 133.746094 390.878906 L 23.308594 280.445312 L 23.308594 124.269531 L 133.746094 13.835938 L 289.921875 13.835938 L 400.355469 124.269531 Z M 400.355469 280.445312 "/></g><g clip-rule="nonzero" clip-path="url(#5ae6b2b8dc)"><path style=" stroke:none;fill-rule:nonzero;fill:#ff5750;fill-opacity:1;" d="M 291 11.578125 L 132.867188 11.578125 L 21.054688 123.394531 L 21.054688 281.523438 L 132.867188 393.339844 L 291 393.339844 L 402.8125 281.523438 L 402.8125 123.394531 Z M 393.671875 277.738281 L 287.214844 384.199219 L 136.65625 384.199219 L 30.195312 277.738281 L 30.195312 127.179688 L 136.65625 20.71875 L 287.214844 20.71875 L 393.671875 127.179688 Z M 393.671875 277.738281 "/></g><g clip-rule="nonzero" clip-path="url(#f6b8adb7a7)"><path style=" stroke:none;fill-rule:nonzero;fill:#ff5750;fill-opacity:1;" d="M 289.726562 14.546875 L 134.082031 14.546875 L 24.023438 124.605469 L 24.023438 280.25 L 134.082031 390.308594 L 289.726562 390.308594 L 399.785156 280.25 L 399.785156 124.605469 Z M 390.785156 276.523438 L 286 381.3125 L 137.808594 381.3125 L 33.023438 276.523438 L 33.023438 128.332031 L 137.808594 23.546875 L 286 23.546875 L 390.785156 128.332031 Z M 390.785156 276.523438 "/><path style=" stroke:none;fill-rule:nonzero;fill:#ff5750;fill-opacity:1;" d="M 289.726562 14.546875 L 134.082031 14.546875 L 24.023438 124.605469 L 24.023438 280.25 L 134.082031 390.308594 L 289.726562 390.308594 L 399.785156 280.25 L 399.785156 124.605469 Z M 390.785156 276.523438 L 286 381.3125 L 137.808594 381.3125 L 33.023438 276.523438 L 33.023438 128.332031 L 137.808594 23.546875 L 286 23.546875 L 390.785156 128.332031 Z M 390.785156 276.523438 "/></g><g clip-rule="nonzero" clip-path="url(#9ba4894a0f)"><path style=" stroke:none;fill-rule:nonzero;fill:#ff5750;fill-opacity:1;" d="M 286.527344 21.957031 L 137.097656 21.957031 L 31.433594 127.621094 L 31.433594 277.054688 L 137.097656 382.71875 L 286.527344 382.71875 L 392.191406 277.054688 L 392.191406 127.621094 Z M 383.554688 273.476562 L 282.949219 374.078125 L 140.675781 374.078125 L 40.070312 273.476562 L 40.070312 131.199219 L 140.675781 30.597656 L 282.949219 30.597656 L 383.554688 131.199219 Z M 383.554688 273.476562 "/></g><g clip-rule="nonzero" clip-path="url(#2496a81ea4)"><path style=" stroke:none;fill-rule:nonzero;fill:#ff5750;fill-opacity:1;" d="M 116.785156 71.871094 L 191.957031 71.871094 L 191.957031 107.507812 L 116.785156 107.507812 Z M 116.785156 71.871094 "/></g><g clip-rule="nonzero" clip-path="url(#d087b9dabc)"><path style=" stroke:none;fill-rule:nonzero;fill:#ff5750;fill-opacity:1;" d="M 232.421875 71.871094 L 307.589844 71.871094 L 307.589844 107.507812 L 232.421875 107.507812 Z M 232.421875 71.871094 "/></g><g clip-rule="nonzero" clip-path="url(#2a94de9921)"><path style=" stroke:none;fill-rule:nonzero;fill:#ff5750;fill-opacity:1;" d="M 309.355469 109.730469 L 345.390625 109.730469 L 345.390625 145.074219 L 309.355469 145.074219 Z M 309.355469 109.730469 "/></g><g clip-rule="nonzero" clip-path="url(#e0f012b598)"><path style=" stroke:none;fill-rule:nonzero;fill:#ff5750;fill-opacity:1;" d="M 116.785156 146.96875 L 191.957031 146.96875 L 191.957031 182.605469 L 116.785156 182.605469 Z M 116.785156 146.96875 "/></g><g clip-rule="nonzero" clip-path="url(#4240b9506e)"><path style=" stroke:none;fill-rule:nonzero;fill:#ff5750;fill-opacity:1;" d="M 232.421875 146.96875 L 307.589844 146.96875 L 307.589844 182.605469 L 232.421875 182.605469 Z M 232.421875 146.96875 "/></g><g clip-rule="nonzero" clip-path="url(#48f005e0d4)"><path style=" stroke:none;fill-rule:nonzero;fill:#ff5750;fill-opacity:1;" d="M 194.210938 109.730469 L 230.242188 109.730469 L 230.242188 145.074219 L 194.210938 145.074219 Z M 194.210938 109.730469 "/></g><g clip-rule="nonzero" clip-path="url(#614c771e32)"><path style=" stroke:none;fill-rule:nonzero;fill:#ff5750;fill-opacity:1;" d="M 79.289062 109.730469 L 115.324219 109.730469 L 115.324219 145.074219 L 79.289062 145.074219 Z M 79.289062 109.730469 "/></g><g clip-rule="nonzero" clip-path="url(#b3bc359714)"><path style=" stroke:none;fill-rule:nonzero;fill:#ff5750;fill-opacity:1;" d="M 309.242188 184.828125 L 345.273438 184.828125 L 345.273438 220.171875 L 309.242188 220.171875 Z M 309.242188 184.828125 "/></g><g clip-rule="nonzero" clip-path="url(#fb6995ef33)"><path style=" stroke:none;fill-rule:nonzero;fill:#ff5750;fill-opacity:1;" d="M 116.671875 222.066406 L 191.839844 222.066406 L 191.839844 257.703125 L 116.671875 257.703125 Z M 116.671875 222.066406 "/></g><g clip-rule="nonzero" clip-path="url(#d97ec9fbaf)"><path style=" stroke:none;fill-rule:nonzero;fill:#ff5750;fill-opacity:1;" d="M 232.308594 222.066406 L 307.476562 222.066406 L 307.476562 257.703125 L 232.308594 257.703125 Z M 232.308594 222.066406 "/></g><g clip-rule="nonzero" clip-path="url(#202c523bf1)"><path style=" stroke:none;fill-rule:nonzero;fill:#ff5750;fill-opacity:1;" d="M 194.09375 184.828125 L 230.128906 184.828125 L 230.128906 220.171875 L 194.09375 220.171875 Z M 194.09375 184.828125 "/></g><g clip-rule="nonzero" clip-path="url(#be6965c29a)"><path style=" stroke:none;fill-rule:nonzero;fill:#ff5750;fill-opacity:1;" d="M 79.175781 184.828125 L 115.210938 184.828125 L 115.210938 220.171875 L 79.175781 220.171875 Z M 79.175781 184.828125 "/></g><g clip-rule="nonzero" clip-path="url(#939a845c11)"><path style=" stroke:none;fill-rule:nonzero;fill:#ff5750;fill-opacity:1;" d="M 309.128906 259.925781 L 345.160156 259.925781 L 345.160156 295.269531 L 309.128906 295.269531 Z M 309.128906 259.925781 "/></g><g clip-rule="nonzero" clip-path="url(#55239ef229)"><path style=" stroke:none;fill-rule:nonzero;fill:#ff5750;fill-opacity:1;" d="M 116.558594 297.167969 L 191.726562 297.167969 L 191.726562 332.800781 L 116.558594 332.800781 Z M 116.558594 297.167969 "/></g><g clip-rule="nonzero" clip-path="url(#3c5cbd968e)"><path style=" stroke:none;fill-rule:nonzero;fill:#ff5750;fill-opacity:1;" d="M 232.191406 297.167969 L 307.363281 297.167969 L 307.363281 332.800781 L 232.191406 332.800781 Z M 232.191406 297.167969 "/></g><g clip-rule="nonzero" clip-path="url(#84ff89d9aa)"><path style=" stroke:none;fill-rule:nonzero;fill:#ff5750;fill-opacity:1;" d="M 193.980469 259.925781 L 230.015625 259.925781 L 230.015625 295.269531 L 193.980469 295.269531 Z M 193.980469 259.925781 "/></g><g clip-rule="nonzero" clip-path="url(#e91c11b299)"><path style=" stroke:none;fill-rule:nonzero;fill:#ff5750;fill-opacity:1;" d="M 79.0625 259.925781 L 115.09375 259.925781 L 115.09375 295.269531 L 79.0625 295.269531 Z M 79.0625 259.925781 "/></g><g style="fill:#ff5750;fill-opacity:1;"><g transform="translate(443.989973, 261.095401)"><path style="stroke:none" d="M 35.578125 -46.5 L 46.296875 -46.5 C 47.304688 -46.5 47.8125 -45.992188 47.8125 -44.984375 L 47.8125 -1.515625 C 47.8125 -0.503906 47.304688 0 46.296875 0 L 40.359375 0 C 39.347656 0 38.84375 -0.503906 38.84375 -1.515625 L 38.84375 -35.796875 L 38.546875 -35.796875 L 31.171875 -11.578125 C 30.878906 -10.609375 30.273438 -10.125 29.359375 -10.125 L 23.296875 -10.125 C 22.378906 -10.125 21.773438 -10.609375 21.484375 -11.578125 L 13.953125 -35.875 L 13.671875 -35.875 L 13.671875 -1.515625 C 13.671875 -0.941406 13.570312 -0.546875 13.375 -0.328125 C 13.1875 -0.109375 12.78125 0 12.15625 0 L 6.21875 0 C 5.207031 0 4.703125 -0.503906 4.703125 -1.515625 L 4.703125 -44.984375 C 4.703125 -45.992188 5.207031 -46.5 6.21875 -46.5 L 17 -46.5 C 17.675781 -46.5 18.132812 -46.164062 18.375 -45.5 L 26.03125 -19.96875 L 26.46875 -19.96875 L 34.21875 -45.5 C 34.351562 -46.164062 34.804688 -46.5 35.578125 -46.5 Z M 35.578125 -46.5 "/></g></g><g style="fill:#ff5750;fill-opacity:1;"><g transform="translate(496.499834, 261.095401)"><path style="stroke:none" d="M 16.921875 0 L 15.1875 0 C 11.375 0 8.429688 -1.007812 6.359375 -3.03125 C 4.285156 -5.0625 3.25 -7.984375 3.25 -11.796875 L 3.25 -25.09375 C 3.25 -28.90625 4.285156 -31.820312 6.359375 -33.84375 C 8.429688 -35.875 11.375 -36.890625 15.1875 -36.890625 L 31.890625 -36.890625 C 32.953125 -36.890625 33.484375 -36.382812 33.484375 -35.375 L 33.484375 -1.515625 C 33.484375 -0.503906 32.953125 0 31.890625 0 L 25.828125 0 C 24.804688 0 24.296875 -0.503906 24.296875 -1.515625 L 24.296875 -3.90625 L 24.015625 -3.90625 C 23.484375 -2.601562 22.539062 -1.625 21.1875 -0.96875 C 19.84375 -0.320312 18.421875 0 16.921875 0 Z M 24.296875 -13.453125 L 24.296875 -28.140625 C 24.296875 -28.671875 24.007812 -28.9375 23.4375 -28.9375 L 16.640625 -28.9375 C 15.097656 -28.9375 14.007812 -28.609375 13.375 -27.953125 C 12.75 -27.304688 12.4375 -26.207031 12.4375 -24.65625 L 12.4375 -12.21875 C 12.4375 -10.675781 12.75 -9.578125 13.375 -8.921875 C 14.007812 -8.273438 15.097656 -7.953125 16.640625 -7.953125 L 19.3125 -7.953125 C 22.632812 -7.953125 24.296875 -9.785156 24.296875 -13.453125 Z M 24.296875 -13.453125 "/></g></g><g style="fill:#ff5750;fill-opacity:1;"><g transform="translate(533.965554, 261.095401)"><path style="stroke:none" d="M 31.171875 0 L 15.1875 0 C 11.375 0 8.429688 -1.007812 6.359375 -3.03125 C 4.285156 -5.0625 3.25 -7.984375 3.25 -11.796875 L 3.25 -25.09375 C 3.25 -28.90625 4.285156 -31.820312 6.359375 -33.84375 C 8.429688 -35.875 11.375 -36.890625 15.1875 -36.890625 L 20.90625 -36.890625 C 24.707031 -36.890625 27.644531 -35.875 29.71875 -33.84375 C 31.800781 -31.820312 32.84375 -28.90625 32.84375 -25.09375 L 32.84375 -15.90625 C 32.84375 -14.894531 32.332031 -14.390625 31.3125 -14.390625 L 13.15625 -14.390625 C 12.582031 -14.390625 12.296875 -14.125 12.296875 -13.59375 L 12.296875 -12 C 12.296875 -10.507812 12.617188 -9.4375 13.265625 -8.78125 C 13.921875 -8.132812 15.019531 -7.8125 16.5625 -7.8125 L 31.171875 -7.8125 C 32.179688 -7.8125 32.6875 -7.28125 32.6875 -6.21875 L 32.6875 -1.453125 C 32.6875 -0.921875 32.578125 -0.546875 32.359375 -0.328125 C 32.148438 -0.109375 31.753906 0 31.171875 0 Z M 13.15625 -20.546875 L 23 -20.546875 C 23.53125 -20.546875 23.796875 -20.8125 23.796875 -21.34375 L 23.796875 -24.8125 C 23.796875 -26.351562 23.484375 -27.4375 22.859375 -28.0625 C 22.234375 -28.6875 21.144531 -29 19.59375 -29 L 16.5625 -29 C 15.019531 -29 13.9375 -28.6875 13.3125 -28.0625 C 12.6875 -27.4375 12.375 -26.351562 12.375 -24.8125 L 12.375 -21.34375 C 12.375 -20.8125 12.632812 -20.546875 13.15625 -20.546875 Z M 13.15625 -20.546875 "/></g></g><g style="fill:#ff5750;fill-opacity:1;"><g transform="translate(569.695407, 261.095401)"><path style="stroke:none" d="M 12 0 L 5.859375 0 C 4.847656 0 4.34375 -0.503906 4.34375 -1.515625 L 4.34375 -49.328125 C 4.34375 -50.335938 4.847656 -50.84375 5.859375 -50.84375 L 12 -50.84375 C 13.019531 -50.84375 13.53125 -50.335938 13.53125 -49.328125 L 13.53125 -1.515625 C 13.53125 -0.503906 13.019531 0 12 0 Z M 12 0 "/></g></g><g style="fill:#ff5750;fill-opacity:1;"><g transform="translate(587.560334, 261.095401)"><path style="stroke:none" d="M 17.9375 0 L 4.1875 0 C 3.226562 0 2.75 -0.503906 2.75 -1.515625 L 2.75 -6.140625 C 2.75 -6.671875 2.84375 -7.046875 3.03125 -7.265625 C 3.226562 -7.484375 3.613281 -7.59375 4.1875 -7.59375 L 16.28125 -7.59375 C 18.632812 -7.59375 19.8125 -8.316406 19.8125 -9.765625 L 19.8125 -10.125 C 19.8125 -11.28125 18.828125 -12.390625 16.859375 -13.453125 L 9.6875 -17.4375 C 7.226562 -18.6875 5.421875 -20.035156 4.265625 -21.484375 C 3.109375 -22.929688 2.53125 -24.785156 2.53125 -27.046875 C 2.53125 -30.421875 3.421875 -32.90625 5.203125 -34.5 C 6.992188 -36.09375 9.789062 -36.890625 13.59375 -36.890625 L 25.671875 -36.890625 C 26.640625 -36.890625 27.125 -36.382812 27.125 -35.375 L 27.125 -30.671875 C 27.125 -30.140625 27.023438 -29.765625 26.828125 -29.546875 C 26.640625 -29.328125 26.253906 -29.21875 25.671875 -29.21875 L 15.625 -29.21875 C 13.257812 -29.21875 12.078125 -28.613281 12.078125 -27.40625 L 12.078125 -27.046875 C 12.078125 -25.984375 13.113281 -24.898438 15.1875 -23.796875 L 22.5 -19.453125 C 25 -18.109375 26.753906 -16.722656 27.765625 -15.296875 C 28.785156 -13.867188 29.296875 -12 29.296875 -9.6875 C 29.296875 -3.226562 25.507812 0 17.9375 0 Z M 17.9375 0 "/></g></g><g style="fill:#ff5750;fill-opacity:1;"><g transform="translate(619.23985, 261.095401)"><path style="stroke:none" d="M 4.78125 -28.9375 L 1.875 -28.9375 C 1.300781 -28.9375 0.90625 -29.03125 0.6875 -29.21875 C 0.46875 -29.414062 0.359375 -29.800781 0.359375 -30.375 L 0.359375 -35.375 C 0.359375 -36.382812 0.863281 -36.890625 1.875 -36.890625 L 4.78125 -36.890625 C 5.300781 -36.890625 5.5625 -37.15625 5.5625 -37.6875 L 5.5625 -44.546875 C 5.5625 -45.566406 6.09375 -46.078125 7.15625 -46.078125 L 13.234375 -46.078125 C 14.242188 -46.078125 14.75 -45.566406 14.75 -44.546875 L 14.75 -37.6875 C 14.75 -37.15625 15.039062 -36.890625 15.625 -36.890625 L 21.265625 -36.890625 C 22.273438 -36.890625 22.78125 -36.382812 22.78125 -35.375 L 22.78125 -30.375 C 22.78125 -29.84375 22.671875 -29.46875 22.453125 -29.25 C 22.234375 -29.039062 21.835938 -28.9375 21.265625 -28.9375 L 15.625 -28.9375 C 15.039062 -28.9375 14.75 -28.671875 14.75 -28.140625 L 14.75 -12.15625 C 14.75 -10.65625 15.085938 -9.578125 15.765625 -8.921875 C 16.441406 -8.273438 17.550781 -7.953125 19.09375 -7.953125 L 21.984375 -7.953125 C 22.992188 -7.953125 23.5 -7.445312 23.5 -6.4375 L 23.5 -1.453125 C 23.5 -0.921875 23.390625 -0.546875 23.171875 -0.328125 C 22.960938 -0.109375 22.566406 0 21.984375 0 L 17.578125 0 C 13.765625 0 10.804688 -1.007812 8.703125 -3.03125 C 6.609375 -5.0625 5.5625 -7.957031 5.5625 -11.71875 L 5.5625 -28.140625 C 5.5625 -28.671875 5.300781 -28.9375 4.78125 -28.9375 Z M 4.78125 -28.9375 "/></g></g><g style="fill:#ff5750;fill-opacity:1;"><g transform="translate(644.771501, 261.095401)"><path style="stroke:none" d="M 11.640625 0 L 5.5 0 C 4.488281 0 3.984375 -0.503906 3.984375 -1.515625 L 3.984375 -35.375 C 3.984375 -36.382812 4.488281 -36.890625 5.5 -36.890625 L 11.640625 -36.890625 C 12.648438 -36.890625 13.15625 -36.382812 13.15625 -35.375 L 13.15625 -32.90625 L 13.453125 -32.90625 C 13.984375 -34.207031 14.921875 -35.195312 16.265625 -35.875 C 17.617188 -36.550781 19.046875 -36.890625 20.546875 -36.890625 L 23.140625 -36.890625 C 24.109375 -36.890625 24.59375 -36.382812 24.59375 -35.375 L 24.59375 -30.375 C 24.59375 -29.800781 24.484375 -29.40625 24.265625 -29.1875 C 24.046875 -28.96875 23.671875 -28.882812 23.140625 -28.9375 L 18.15625 -28.9375 C 14.820312 -28.9375 13.15625 -27.054688 13.15625 -23.296875 L 13.15625 -1.515625 C 13.15625 -0.503906 12.648438 0 11.640625 0 Z M 11.640625 0 "/></g></g><g style="fill:#ff5750;fill-opacity:1;"><g transform="translate(670.013845, 261.095401)"><path style="stroke:none" d="M 21.625 0 L 15.1875 0 C 11.375 0 8.429688 -1.007812 6.359375 -3.03125 C 4.285156 -5.0625 3.25 -7.984375 3.25 -11.796875 L 3.25 -25.09375 C 3.25 -28.90625 4.285156 -31.820312 6.359375 -33.84375 C 8.429688 -35.875 11.375 -36.890625 15.1875 -36.890625 L 21.625 -36.890625 C 25.382812 -36.890625 28.3125 -35.863281 30.40625 -33.8125 C 32.507812 -31.757812 33.5625 -28.851562 33.5625 -25.09375 L 33.5625 -11.796875 C 33.5625 -8.023438 32.507812 -5.113281 30.40625 -3.0625 C 28.3125 -1.019531 25.382812 0 21.625 0 Z M 16.5625 -7.890625 L 20.25 -7.890625 C 21.789062 -7.890625 22.882812 -8.203125 23.53125 -8.828125 C 24.1875 -9.453125 24.515625 -10.535156 24.515625 -12.078125 L 24.515625 -24.8125 C 24.515625 -26.351562 24.1875 -27.4375 23.53125 -28.0625 C 22.882812 -28.6875 21.789062 -29 20.25 -29 L 16.5625 -29 C 15.019531 -29 13.9375 -28.6875 13.3125 -28.0625 C 12.6875 -27.4375 12.375 -26.351562 12.375 -24.8125 L 12.375 -12.078125 C 12.375 -10.535156 12.6875 -9.453125 13.3125 -8.828125 C 13.9375 -8.203125 15.019531 -7.890625 16.5625 -7.890625 Z M 16.5625 -7.890625 "/></g></g><g style="fill:#ff5750;fill-opacity:1;"><g transform="translate(706.828616, 261.095401)"><path style="stroke:none" d="M 11.640625 0 L 5.5 0 C 4.488281 0 3.984375 -0.503906 3.984375 -1.515625 L 3.984375 -35.375 C 3.984375 -36.382812 4.488281 -36.890625 5.5 -36.890625 L 11.640625 -36.890625 C 12.648438 -36.890625 13.15625 -36.382812 13.15625 -35.375 L 13.15625 -32.984375 L 13.453125 -32.984375 C 14.035156 -34.140625 15.007812 -35.078125 16.375 -35.796875 C 17.75 -36.523438 19.332031 -36.890625 21.125 -36.890625 L 23.140625 -36.890625 C 27.335938 -36.890625 30.351562 -35.347656 32.1875 -32.265625 C 33.820312 -35.347656 36.640625 -36.890625 40.640625 -36.890625 L 42.75 -36.890625 C 46.457031 -36.890625 49.265625 -35.875 51.171875 -33.84375 C 53.078125 -31.820312 54.03125 -28.90625 54.03125 -25.09375 L 54.03125 -1.515625 C 54.03125 -0.503906 53.523438 0 52.515625 0 L 46.359375 0 C 45.347656 0 44.84375 -0.503906 44.84375 -1.515625 L 44.84375 -24.65625 C 44.84375 -26.207031 44.53125 -27.304688 43.90625 -27.953125 C 43.28125 -28.609375 42.191406 -28.9375 40.640625 -28.9375 L 38.84375 -28.9375 C 35.507812 -28.9375 33.84375 -27.078125 33.84375 -23.359375 L 33.84375 -1.515625 C 33.84375 -0.503906 33.316406 0 32.265625 0 L 26.1875 0 C 25.164062 0 24.65625 -0.503906 24.65625 -1.515625 L 24.65625 -24.65625 C 24.65625 -26.207031 24.332031 -27.304688 23.6875 -27.953125 C 23.039062 -28.609375 21.941406 -28.9375 20.390625 -28.9375 L 18.15625 -28.9375 C 14.820312 -28.9375 13.15625 -27.101562 13.15625 -23.4375 L 13.15625 -1.515625 C 13.15625 -0.503906 12.648438 0 11.640625 0 Z M 11.640625 0 "/></g></g><g style="fill:#ff5750;fill-opacity:1;"><g transform="translate(443.989973, 185.996982)"><path style="stroke:none" d="M 23.796875 0 L 15.90625 0 C 12.101562 0 9.164062 -1.007812 7.09375 -3.03125 C 5.019531 -5.0625 3.984375 -7.984375 3.984375 -11.796875 L 3.984375 -34.71875 C 3.984375 -38.53125 5.019531 -41.445312 7.09375 -43.46875 C 9.164062 -45.488281 12.101562 -46.5 15.90625 -46.5 L 23.796875 -46.5 C 27.554688 -46.5 30.484375 -45.472656 32.578125 -43.421875 C 34.679688 -41.378906 35.734375 -38.476562 35.734375 -34.71875 L 35.734375 -31.3125 C 35.734375 -30.257812 35.203125 -29.734375 34.140625 -29.734375 L 28.0625 -29.734375 C 27.050781 -29.734375 26.546875 -30.257812 26.546875 -31.3125 L 26.546875 -34.28125 C 26.546875 -35.820312 26.21875 -36.914062 25.5625 -37.5625 C 24.914062 -38.21875 23.820312 -38.546875 22.28125 -38.546875 L 17.359375 -38.546875 C 15.859375 -38.546875 14.78125 -38.21875 14.125 -37.5625 C 13.476562 -36.914062 13.15625 -35.820312 13.15625 -34.28125 L 13.15625 -12.21875 C 13.15625 -10.675781 13.476562 -9.578125 14.125 -8.921875 C 14.78125 -8.273438 15.859375 -7.953125 17.359375 -7.953125 L 22.28125 -7.953125 C 23.820312 -7.953125 24.914062 -8.273438 25.5625 -8.921875 C 26.21875 -9.578125 26.546875 -10.675781 26.546875 -12.21875 L 26.546875 -15.1875 C 26.546875 -16.25 27.050781 -16.78125 28.0625 -16.78125 L 34.140625 -16.78125 C 35.203125 -16.78125 35.734375 -16.25 35.734375 -15.1875 L 35.734375 -11.796875 C 35.734375 -8.023438 34.679688 -5.113281 32.578125 -3.0625 C 30.484375 -1.019531 27.554688 0 23.796875 0 Z M 23.796875 0 "/></g></g><g style="fill:#ff5750;fill-opacity:1;"><g transform="translate(482.902243, 185.996982)"><path style="stroke:none" d="M 9.984375 12.21875 L 5.359375 12.21875 C 4.390625 12.21875 3.90625 11.6875 3.90625 10.625 L 3.90625 5.78125 C 3.90625 4.71875 4.390625 4.1875 5.359375 4.1875 L 6.875 4.1875 C 9.90625 4.1875 11.960938 3.765625 13.046875 2.921875 C 14.140625 2.078125 14.972656 0.453125 15.546875 -1.953125 L 11.71875 -1.953125 C 10.800781 -1.953125 10.195312 -2.457031 9.90625 -3.46875 L 1.453125 -35.375 C 1.160156 -36.382812 1.519531 -36.890625 2.53125 -36.890625 L 8.96875 -36.890625 C 9.9375 -36.890625 10.539062 -36.382812 10.78125 -35.375 L 17 -8.671875 L 17.28125 -8.671875 L 23.4375 -35.375 C 23.625 -36.382812 24.226562 -36.890625 25.25 -36.890625 L 31.3125 -36.890625 C 32.519531 -36.890625 33.003906 -36.359375 32.765625 -35.296875 L 23.9375 0 C 22.875 4 21.234375 7.035156 19.015625 9.109375 C 16.796875 11.179688 13.785156 12.21875 9.984375 12.21875 Z M 9.984375 12.21875 "/></g></g><g style="fill:#ff5750;fill-opacity:1;"><g transform="translate(516.968565, 185.996982)"><path style="stroke:none" d="M 13.953125 -7.953125 L 21.34375 -7.953125 C 22.882812 -7.953125 23.976562 -8.273438 24.625 -8.921875 C 25.28125 -9.578125 25.609375 -10.675781 25.609375 -12.21875 L 25.609375 -24.8125 C 25.609375 -26.351562 25.28125 -27.445312 24.625 -28.09375 C 23.976562 -28.75 22.882812 -29.078125 21.34375 -29.078125 L 18.15625 -29.078125 C 14.820312 -29.078125 13.15625 -27.242188 13.15625 -23.578125 L 13.15625 -8.75 C 13.15625 -8.21875 13.421875 -7.953125 13.953125 -7.953125 Z M 3.984375 -1.515625 L 3.984375 -49.328125 C 3.984375 -50.335938 4.488281 -50.84375 5.5 -50.84375 L 11.640625 -50.84375 C 12.648438 -50.84375 13.15625 -50.335938 13.15625 -49.328125 L 13.15625 -33.046875 L 13.453125 -33.046875 C 13.984375 -34.347656 14.921875 -35.335938 16.265625 -36.015625 C 17.617188 -36.691406 19.046875 -37.03125 20.546875 -37.03125 L 22.859375 -37.03125 C 26.660156 -37.03125 29.597656 -36.015625 31.671875 -33.984375 C 33.753906 -31.960938 34.796875 -29.050781 34.796875 -25.25 L 34.796875 -11.796875 C 34.796875 -7.984375 33.753906 -5.0625 31.671875 -3.03125 C 29.597656 -1.007812 26.660156 0 22.859375 0 L 5.5 0 C 4.488281 0 3.984375 -0.503906 3.984375 -1.515625 Z M 3.984375 -1.515625 "/></g></g><g style="fill:#ff5750;fill-opacity:1;"><g transform="translate(555.012908, 185.996982)"><path style="stroke:none" d="M 31.171875 0 L 15.1875 0 C 11.375 0 8.429688 -1.007812 6.359375 -3.03125 C 4.285156 -5.0625 3.25 -7.984375 3.25 -11.796875 L 3.25 -25.09375 C 3.25 -28.90625 4.285156 -31.820312 6.359375 -33.84375 C 8.429688 -35.875 11.375 -36.890625 15.1875 -36.890625 L 20.90625 -36.890625 C 24.707031 -36.890625 27.644531 -35.875 29.71875 -33.84375 C 31.800781 -31.820312 32.84375 -28.90625 32.84375 -25.09375 L 32.84375 -15.90625 C 32.84375 -14.894531 32.332031 -14.390625 31.3125 -14.390625 L 13.15625 -14.390625 C 12.582031 -14.390625 12.296875 -14.125 12.296875 -13.59375 L 12.296875 -12 C 12.296875 -10.507812 12.617188 -9.4375 13.265625 -8.78125 C 13.921875 -8.132812 15.019531 -7.8125 16.5625 -7.8125 L 31.171875 -7.8125 C 32.179688 -7.8125 32.6875 -7.28125 32.6875 -6.21875 L 32.6875 -1.453125 C 32.6875 -0.921875 32.578125 -0.546875 32.359375 -0.328125 C 32.148438 -0.109375 31.753906 0 31.171875 0 Z M 13.15625 -20.546875 L 23 -20.546875 C 23.53125 -20.546875 23.796875 -20.8125 23.796875 -21.34375 L 23.796875 -24.8125 C 23.796875 -26.351562 23.484375 -27.4375 22.859375 -28.0625 C 22.234375 -28.6875 21.144531 -29 19.59375 -29 L 16.5625 -29 C 15.019531 -29 13.9375 -28.6875 13.3125 -28.0625 C 12.6875 -27.4375 12.375 -26.351562 12.375 -24.8125 L 12.375 -21.34375 C 12.375 -20.8125 12.632812 -20.546875 13.15625 -20.546875 Z M 13.15625 -20.546875 "/></g></g><g style="fill:#ff5750;fill-opacity:1;"><g transform="translate(590.742761, 185.996982)"><path style="stroke:none" d="M 11.640625 0 L 5.5 0 C 4.488281 0 3.984375 -0.503906 3.984375 -1.515625 L 3.984375 -35.375 C 3.984375 -36.382812 4.488281 -36.890625 5.5 -36.890625 L 11.640625 -36.890625 C 12.648438 -36.890625 13.15625 -36.382812 13.15625 -35.375 L 13.15625 -32.90625 L 13.453125 -32.90625 C 13.984375 -34.207031 14.921875 -35.195312 16.265625 -35.875 C 17.617188 -36.550781 19.046875 -36.890625 20.546875 -36.890625 L 23.140625 -36.890625 C 24.109375 -36.890625 24.59375 -36.382812 24.59375 -35.375 L 24.59375 -30.375 C 24.59375 -29.800781 24.484375 -29.40625 24.265625 -29.1875 C 24.046875 -28.96875 23.671875 -28.882812 23.140625 -28.9375 L 18.15625 -28.9375 C 14.820312 -28.9375 13.15625 -27.054688 13.15625 -23.296875 L 13.15625 -1.515625 C 13.15625 -0.503906 12.648438 0 11.640625 0 Z M 11.640625 0 "/></g></g><g style="fill:#ff5750;fill-opacity:1;"><g transform="translate(615.985095, 185.996982)"><path style="stroke:none" d="M 18.734375 0 L 10.484375 0 C 9.566406 0 8.988281 -0.503906 8.75 -1.515625 L 1.515625 -35.375 C 1.328125 -36.382812 1.691406 -36.890625 2.609375 -36.890625 L 9.546875 -36.890625 C 10.609375 -36.890625 11.1875 -36.382812 11.28125 -35.375 L 14.53125 -10.625 L 15.109375 -10.625 L 20.25 -35.375 C 20.394531 -36.382812 20.953125 -36.890625 21.921875 -36.890625 L 28.28125 -36.890625 C 29.289062 -36.890625 29.894531 -36.382812 30.09375 -35.375 L 35.078125 -10.625 L 35.65625 -10.625 L 38.984375 -35.375 C 39.128906 -36.382812 39.707031 -36.890625 40.71875 -36.890625 L 47.671875 -36.890625 C 48.628906 -36.890625 48.988281 -36.382812 48.75 -35.375 L 41.515625 -1.515625 C 41.328125 -0.503906 40.75 0 39.78125 0 L 31.53125 0 C 30.570312 0 29.992188 -0.503906 29.796875 -1.515625 L 25.390625 -25.96875 L 24.8125 -25.96875 L 20.46875 -1.515625 C 20.320312 -0.503906 19.742188 0 18.734375 0 Z M 18.734375 0 "/></g></g><g style="fill:#ff5750;fill-opacity:1;"><g transform="translate(666.32513, 185.996982)"><path style="stroke:none" d="M 16.921875 0 L 15.1875 0 C 11.375 0 8.429688 -1.007812 6.359375 -3.03125 C 4.285156 -5.0625 3.25 -7.984375 3.25 -11.796875 L 3.25 -25.09375 C 3.25 -28.90625 4.285156 -31.820312 6.359375 -33.84375 C 8.429688 -35.875 11.375 -36.890625 15.1875 -36.890625 L 31.890625 -36.890625 C 32.953125 -36.890625 33.484375 -36.382812 33.484375 -35.375 L 33.484375 -1.515625 C 33.484375 -0.503906 32.953125 0 31.890625 0 L 25.828125 0 C 24.804688 0 24.296875 -0.503906 24.296875 -1.515625 L 24.296875 -3.90625 L 24.015625 -3.90625 C 23.484375 -2.601562 22.539062 -1.625 21.1875 -0.96875 C 19.84375 -0.320312 18.421875 0 16.921875 0 Z M 24.296875 -13.453125 L 24.296875 -28.140625 C 24.296875 -28.671875 24.007812 -28.9375 23.4375 -28.9375 L 16.640625 -28.9375 C 15.097656 -28.9375 14.007812 -28.609375 13.375 -27.953125 C 12.75 -27.304688 12.4375 -26.207031 12.4375 -24.65625 L 12.4375 -12.21875 C 12.4375 -10.675781 12.75 -9.578125 13.375 -8.921875 C 14.007812 -8.273438 15.097656 -7.953125 16.640625 -7.953125 L 19.3125 -7.953125 C 22.632812 -7.953125 24.296875 -9.785156 24.296875 -13.453125 Z M 24.296875 -13.453125 "/></g></g><g style="fill:#ff5750;fill-opacity:1;"><g transform="translate(703.79086, 185.996982)"><path style="stroke:none" d="M 11.640625 0 L 5.5 0 C 4.488281 0 3.984375 -0.503906 3.984375 -1.515625 L 3.984375 -35.375 C 3.984375 -36.382812 4.488281 -36.890625 5.5 -36.890625 L 11.640625 -36.890625 C 12.648438 -36.890625 13.15625 -36.382812 13.15625 -35.375 L 13.15625 -32.90625 L 13.453125 -32.90625 C 13.984375 -34.207031 14.921875 -35.195312 16.265625 -35.875 C 17.617188 -36.550781 19.046875 -36.890625 20.546875 -36.890625 L 23.140625 -36.890625 C 24.109375 -36.890625 24.59375 -36.382812 24.59375 -35.375 L 24.59375 -30.375 C 24.59375 -29.800781 24.484375 -29.40625 24.265625 -29.1875 C 24.046875 -28.96875 23.671875 -28.882812 23.140625 -28.9375 L 18.15625 -28.9375 C 14.820312 -28.9375 13.15625 -27.054688 13.15625 -23.296875 L 13.15625 -1.515625 C 13.15625 -0.503906 12.648438 0 11.640625 0 Z M 11.640625 0 "/></g></g><g style="fill:#ff5750;fill-opacity:1;"><g transform="translate(729.033204, 185.996982)"><path style="stroke:none" d="M 31.171875 0 L 15.1875 0 C 11.375 0 8.429688 -1.007812 6.359375 -3.03125 C 4.285156 -5.0625 3.25 -7.984375 3.25 -11.796875 L 3.25 -25.09375 C 3.25 -28.90625 4.285156 -31.820312 6.359375 -33.84375 C 8.429688 -35.875 11.375 -36.890625 15.1875 -36.890625 L 20.90625 -36.890625 C 24.707031 -36.890625 27.644531 -35.875 29.71875 -33.84375 C 31.800781 -31.820312 32.84375 -28.90625 32.84375 -25.09375 L 32.84375 -15.90625 C 32.84375 -14.894531 32.332031 -14.390625 31.3125 -14.390625 L 13.15625 -14.390625 C 12.582031 -14.390625 12.296875 -14.125 12.296875 -13.59375 L 12.296875 -12 C 12.296875 -10.507812 12.617188 -9.4375 13.265625 -8.78125 C 13.921875 -8.132812 15.019531 -7.8125 16.5625 -7.8125 L 31.171875 -7.8125 C 32.179688 -7.8125 32.6875 -7.28125 32.6875 -6.21875 L 32.6875 -1.453125 C 32.6875 -0.921875 32.578125 -0.546875 32.359375 -0.328125 C 32.148438 -0.109375 31.753906 0 31.171875 0 Z M 13.15625 -20.546875 L 23 -20.546875 C 23.53125 -20.546875 23.796875 -20.8125 23.796875 -21.34375 L 23.796875 -24.8125 C 23.796875 -26.351562 23.484375 -27.4375 22.859375 -28.0625 C 22.234375 -28.6875 21.144531 -29 19.59375 -29 L 16.5625 -29 C 15.019531 -29 13.9375 -28.6875 13.3125 -28.0625 C 12.6875 -27.4375 12.375 -26.351562 12.375 -24.8125 L 12.375 -21.34375 C 12.375 -20.8125 12.632812 -20.546875 13.15625 -20.546875 Z M 13.15625 -20.546875 "/></g></g><g style="fill:#ff5750;fill-opacity:1;"><g transform="translate(443.989973, 110.003418)"><path style="stroke:none" d="M 12.21875 0 L 6.21875 0 C 5.207031 0 4.703125 -0.503906 4.703125 -1.515625 L 4.703125 -44.984375 C 4.703125 -45.992188 5.207031 -46.5 6.21875 -46.5 L 11.640625 -46.5 C 12.648438 -46.5 13.328125 -46.164062 13.671875 -45.5 L 28.28125 -18.078125 L 28.5625 -18.078125 L 28.5625 -44.984375 C 28.5625 -45.992188 29.070312 -46.5 30.09375 -46.5 L 36.09375 -46.5 C 37.101562 -46.5 37.609375 -45.992188 37.609375 -44.984375 L 37.609375 -1.515625 C 37.609375 -0.503906 37.101562 0 36.09375 0 L 30.8125 0 C 29.75 0 28.976562 -0.484375 28.5 -1.453125 L 14.03125 -28.359375 L 13.75 -28.359375 L 13.75 -1.515625 C 13.75 -0.503906 13.238281 0 12.21875 0 Z M 12.21875 0 "/></g></g><g style="fill:#ff5750;fill-opacity:1;"><g transform="translate(486.301641, 110.003418)"><path style="stroke:none" d="M 31.171875 0 L 15.1875 0 C 11.375 0 8.429688 -1.007812 6.359375 -3.03125 C 4.285156 -5.0625 3.25 -7.984375 3.25 -11.796875 L 3.25 -25.09375 C 3.25 -28.90625 4.285156 -31.820312 6.359375 -33.84375 C 8.429688 -35.875 11.375 -36.890625 15.1875 -36.890625 L 20.90625 -36.890625 C 24.707031 -36.890625 27.644531 -35.875 29.71875 -33.84375 C 31.800781 -31.820312 32.84375 -28.90625 32.84375 -25.09375 L 32.84375 -15.90625 C 32.84375 -14.894531 32.332031 -14.390625 31.3125 -14.390625 L 13.15625 -14.390625 C 12.582031 -14.390625 12.296875 -14.125 12.296875 -13.59375 L 12.296875 -12 C 12.296875 -10.507812 12.617188 -9.4375 13.265625 -8.78125 C 13.921875 -8.132812 15.019531 -7.8125 16.5625 -7.8125 L 31.171875 -7.8125 C 32.179688 -7.8125 32.6875 -7.28125 32.6875 -6.21875 L 32.6875 -1.453125 C 32.6875 -0.921875 32.578125 -0.546875 32.359375 -0.328125 C 32.148438 -0.109375 31.753906 0 31.171875 0 Z M 13.15625 -20.546875 L 23 -20.546875 C 23.53125 -20.546875 23.796875 -20.8125 23.796875 -21.34375 L 23.796875 -24.8125 C 23.796875 -26.351562 23.484375 -27.4375 22.859375 -28.0625 C 22.234375 -28.6875 21.144531 -29 19.59375 -29 L 16.5625 -29 C 15.019531 -29 13.9375 -28.6875 13.3125 -28.0625 C 12.6875 -27.4375 12.375 -26.351562 12.375 -24.8125 L 12.375 -21.34375 C 12.375 -20.8125 12.632812 -20.546875 13.15625 -20.546875 Z M 13.15625 -20.546875 "/></g></g><g style="fill:#ff5750;fill-opacity:1;"><g transform="translate(522.031494, 110.003418)"><path style="stroke:none" d="M 4.78125 -28.9375 L 1.875 -28.9375 C 1.300781 -28.9375 0.90625 -29.03125 0.6875 -29.21875 C 0.46875 -29.414062 0.359375 -29.800781 0.359375 -30.375 L 0.359375 -35.375 C 0.359375 -36.382812 0.863281 -36.890625 1.875 -36.890625 L 4.78125 -36.890625 C 5.300781 -36.890625 5.5625 -37.15625 5.5625 -37.6875 L 5.5625 -44.546875 C 5.5625 -45.566406 6.09375 -46.078125 7.15625 -46.078125 L 13.234375 -46.078125 C 14.242188 -46.078125 14.75 -45.566406 14.75 -44.546875 L 14.75 -37.6875 C 14.75 -37.15625 15.039062 -36.890625 15.625 -36.890625 L 21.265625 -36.890625 C 22.273438 -36.890625 22.78125 -36.382812 22.78125 -35.375 L 22.78125 -30.375 C 22.78125 -29.84375 22.671875 -29.46875 22.453125 -29.25 C 22.234375 -29.039062 21.835938 -28.9375 21.265625 -28.9375 L 15.625 -28.9375 C 15.039062 -28.9375 14.75 -28.671875 14.75 -28.140625 L 14.75 -12.15625 C 14.75 -10.65625 15.085938 -9.578125 15.765625 -8.921875 C 16.441406 -8.273438 17.550781 -7.953125 19.09375 -7.953125 L 21.984375 -7.953125 C 22.992188 -7.953125 23.5 -7.445312 23.5 -6.4375 L 23.5 -1.453125 C 23.5 -0.921875 23.390625 -0.546875 23.171875 -0.328125 C 22.960938 -0.109375 22.566406 0 21.984375 0 L 17.578125 0 C 13.765625 0 10.804688 -1.007812 8.703125 -3.03125 C 6.609375 -5.0625 5.5625 -7.957031 5.5625 -11.71875 L 5.5625 -28.140625 C 5.5625 -28.671875 5.300781 -28.9375 4.78125 -28.9375 Z M 4.78125 -28.9375 "/></g></g><g style="fill:#ff5750;fill-opacity:1;"><g transform="translate(547.563154, 110.003418)"><path style="stroke:none" d="M 11.640625 0 L 5.5 0 C 4.488281 0 3.984375 -0.503906 3.984375 -1.515625 L 3.984375 -35.375 C 3.984375 -36.382812 4.488281 -36.890625 5.5 -36.890625 L 11.640625 -36.890625 C 12.648438 -36.890625 13.15625 -36.382812 13.15625 -35.375 L 13.15625 -32.90625 L 13.453125 -32.90625 C 13.984375 -34.207031 14.921875 -35.195312 16.265625 -35.875 C 17.617188 -36.550781 19.046875 -36.890625 20.546875 -36.890625 L 23.140625 -36.890625 C 24.109375 -36.890625 24.59375 -36.382812 24.59375 -35.375 L 24.59375 -30.375 C 24.59375 -29.800781 24.484375 -29.40625 24.265625 -29.1875 C 24.046875 -28.96875 23.671875 -28.882812 23.140625 -28.9375 L 18.15625 -28.9375 C 14.820312 -28.9375 13.15625 -27.054688 13.15625 -23.296875 L 13.15625 -1.515625 C 13.15625 -0.503906 12.648438 0 11.640625 0 Z M 11.640625 0 "/></g></g><g style="fill:#ff5750;fill-opacity:1;"><g transform="translate(572.805498, 110.003418)"><path style="stroke:none" d="M 17.28125 0 L 14.90625 0 C 11.1875 0 8.375 -1.007812 6.46875 -3.03125 C 4.5625 -5.0625 3.609375 -7.984375 3.609375 -11.796875 L 3.609375 -35.375 C 3.609375 -36.382812 4.117188 -36.890625 5.140625 -36.890625 L 11.28125 -36.890625 C 12.289062 -36.890625 12.796875 -36.382812 12.796875 -35.375 L 12.796875 -12.21875 C 12.796875 -10.675781 13.117188 -9.578125 13.765625 -8.921875 C 14.421875 -8.273438 15.5 -7.953125 17 -7.953125 L 19.671875 -7.953125 C 22.992188 -7.953125 24.65625 -9.785156 24.65625 -13.453125 L 24.65625 -35.375 C 24.65625 -36.382812 25.164062 -36.890625 26.1875 -36.890625 L 32.265625 -36.890625 C 33.316406 -36.890625 33.84375 -36.382812 33.84375 -35.375 L 33.84375 -1.515625 C 33.84375 -0.503906 33.316406 0 32.265625 0 L 26.1875 0 C 25.164062 0 24.65625 -0.503906 24.65625 -1.515625 L 24.65625 -3.90625 L 24.375 -3.90625 C 23.84375 -2.601562 22.898438 -1.625 21.546875 -0.96875 C 20.203125 -0.320312 18.78125 0 17.28125 0 Z M 17.28125 0 "/></g></g><g style="fill:#ff5750;fill-opacity:1;"><g transform="translate(610.632851, 110.003418)"><path style="stroke:none" d="M 11.640625 0 L 5.5 0 C 4.488281 0 3.984375 -0.503906 3.984375 -1.515625 L 3.984375 -35.375 C 3.984375 -36.382812 4.488281 -36.890625 5.5 -36.890625 L 11.640625 -36.890625 C 12.648438 -36.890625 13.15625 -36.382812 13.15625 -35.375 L 13.15625 -32.984375 L 13.453125 -32.984375 C 14.515625 -35.585938 16.878906 -36.890625 20.546875 -36.890625 L 22.859375 -36.890625 C 30.429688 -36.890625 34.21875 -32.957031 34.21875 -25.09375 L 34.21875 -1.515625 C 34.21875 -0.503906 33.6875 0 32.625 0 L 26.546875 0 C 25.535156 0 25.03125 -0.503906 25.03125 -1.515625 L 25.03125 -24.65625 C 25.03125 -26.207031 24.703125 -27.304688 24.046875 -27.953125 C 23.398438 -28.609375 22.304688 -28.9375 20.765625 -28.9375 L 18.15625 -28.9375 C 14.820312 -28.9375 13.15625 -27.101562 13.15625 -23.4375 L 13.15625 -1.515625 C 13.15625 -0.503906 12.648438 0 11.640625 0 Z M 11.640625 0 "/></g></g><g style="fill:#ff5750;fill-opacity:1;"><g transform="translate(648.460214, 110.003418)"><path style="stroke:none" d="M 11.640625 0 L 5.5 0 C 4.488281 0 3.984375 -0.503906 3.984375 -1.515625 L 3.984375 -35.375 C 3.984375 -36.382812 4.488281 -36.890625 5.5 -36.890625 L 11.640625 -36.890625 C 12.648438 -36.890625 13.15625 -36.382812 13.15625 -35.375 L 13.15625 -32.984375 L 13.453125 -32.984375 C 14.515625 -35.585938 16.878906 -36.890625 20.546875 -36.890625 L 22.859375 -36.890625 C 30.429688 -36.890625 34.21875 -32.957031 34.21875 -25.09375 L 34.21875 -1.515625 C 34.21875 -0.503906 33.6875 0 32.625 0 L 26.546875 0 C 25.535156 0 25.03125 -0.503906 25.03125 -1.515625 L 25.03125 -24.65625 C 25.03125 -26.207031 24.703125 -27.304688 24.046875 -27.953125 C 23.398438 -28.609375 22.304688 -28.9375 20.765625 -28.9375 L 18.15625 -28.9375 C 14.820312 -28.9375 13.15625 -27.101562 13.15625 -23.4375 L 13.15625 -1.515625 C 13.15625 -0.503906 12.648438 0 11.640625 0 Z M 11.640625 0 "/></g></g><g style="fill:#ff5750;fill-opacity:1;"><g transform="translate(686.287557, 110.003418)"><path style="stroke:none" d="M 31.171875 0 L 15.1875 0 C 11.375 0 8.429688 -1.007812 6.359375 -3.03125 C 4.285156 -5.0625 3.25 -7.984375 3.25 -11.796875 L 3.25 -25.09375 C 3.25 -28.90625 4.285156 -31.820312 6.359375 -33.84375 C 8.429688 -35.875 11.375 -36.890625 15.1875 -36.890625 L 20.90625 -36.890625 C 24.707031 -36.890625 27.644531 -35.875 29.71875 -33.84375 C 31.800781 -31.820312 32.84375 -28.90625 32.84375 -25.09375 L 32.84375 -15.90625 C 32.84375 -14.894531 32.332031 -14.390625 31.3125 -14.390625 L 13.15625 -14.390625 C 12.582031 -14.390625 12.296875 -14.125 12.296875 -13.59375 L 12.296875 -12 C 12.296875 -10.507812 12.617188 -9.4375 13.265625 -8.78125 C 13.921875 -8.132812 15.019531 -7.8125 16.5625 -7.8125 L 31.171875 -7.8125 C 32.179688 -7.8125 32.6875 -7.28125 32.6875 -6.21875 L 32.6875 -1.453125 C 32.6875 -0.921875 32.578125 -0.546875 32.359375 -0.328125 C 32.148438 -0.109375 31.753906 0 31.171875 0 Z M 13.15625 -20.546875 L 23 -20.546875 C 23.53125 -20.546875 23.796875 -20.8125 23.796875 -21.34375 L 23.796875 -24.8125 C 23.796875 -26.351562 23.484375 -27.4375 22.859375 -28.0625 C 22.234375 -28.6875 21.144531 -29 19.59375 -29 L 16.5625 -29 C 15.019531 -29 13.9375 -28.6875 13.3125 -28.0625 C 12.6875 -27.4375 12.375 -26.351562 12.375 -24.8125 L 12.375 -21.34375 C 12.375 -20.8125 12.632812 -20.546875 13.15625 -20.546875 Z M 13.15625 -20.546875 "/></g></g><g style="fill:#ff5750;fill-opacity:1;"><g transform="translate(722.01741, 110.003418)"><path style="stroke:none" d="M 11.640625 0 L 5.5 0 C 4.488281 0 3.984375 -0.503906 3.984375 -1.515625 L 3.984375 -35.375 C 3.984375 -36.382812 4.488281 -36.890625 5.5 -36.890625 L 11.640625 -36.890625 C 12.648438 -36.890625 13.15625 -36.382812 13.15625 -35.375 L 13.15625 -32.90625 L 13.453125 -32.90625 C 13.984375 -34.207031 14.921875 -35.195312 16.265625 -35.875 C 17.617188 -36.550781 19.046875 -36.890625 20.546875 -36.890625 L 23.140625 -36.890625 C 24.109375 -36.890625 24.59375 -36.382812 24.59375 -35.375 L 24.59375 -30.375 C 24.59375 -29.800781 24.484375 -29.40625 24.265625 -29.1875 C 24.046875 -28.96875 23.671875 -28.882812 23.140625 -28.9375 L 18.15625 -28.9375 C 14.820312 -28.9375 13.15625 -27.054688 13.15625 -23.296875 L 13.15625 -1.515625 C 13.15625 -0.503906 12.648438 0 11.640625 0 Z M 11.640625 0 "/></g></g></g></svg>