<svg xmlns="http://www.w3.org/2000/svg" xmlns:xlink="http://www.w3.org/1999/xlink" width="1080" zoomAndPan="magnify" viewBox="0 0 810 809.999993" height="1080" preserveAspectRatio="xMidYMid meet" version="1.2"><defs><clipPath id="591e1f3fc4"><path d="M 201.953125 146.84375 L 404.636719 146.84375 L 404.636719 191.039062 L 201.953125 191.039062 Z M 201.953125 146.84375 "/></clipPath><clipPath id="0a75da3a36"><path d="M 0 102.648438 L 201.953125 102.648438 L 201.953125 146.84375 L 0 146.84375 Z M 0 102.648438 "/></clipPath><clipPath id="9f775850fb"><path d="M 404.636719 202.085938 L 607.316406 202.085938 L 607.316406 246.28125 L 404.636719 246.28125 Z M 404.636719 202.085938 "/></clipPath><clipPath id="f58479340b"><path d="M 607.316406 102.648438 L 810 102.648438 L 810 146.84375 L 607.316406 146.84375 Z M 607.316406 102.648438 "/></clipPath><clipPath id="082fa39568"><path d="M 0 224.183594 L 202.316406 224.183594 L 202.316406 268.378906 L 0 268.378906 Z M 0 224.183594 "/></clipPath><clipPath id="ce69313d5d"><path d="M 201.953125 268.378906 L 404.636719 268.378906 L 404.636719 312.570312 L 201.953125 312.570312 Z M 201.953125 268.378906 "/></clipPath><clipPath id="cebda04c1d"><path d="M 404.636719 323.621094 L 607.316406 323.621094 L 607.316406 367.8125 L 404.636719 367.8125 Z M 404.636719 323.621094 "/></clipPath><clipPath id="82d047e45a"><path d="M 607.316406 367.8125 L 810 367.8125 L 810 412.007812 L 607.316406 412.007812 Z M 607.316406 367.8125 "/></clipPath><clipPath id="a54acc3a7e"><path d="M 606.953125 257.328125 L 809.636719 257.328125 L 809.636719 301.523438 L 606.953125 301.523438 Z M 606.953125 257.328125 "/></clipPath><clipPath id="8a1d4706b2"><path d="M 0 312.570312 L 202.316406 312.570312 L 202.316406 356.765625 L 0 356.765625 Z M 0 312.570312 "/></clipPath><clipPath id="837aba9b94"><path d="M 0 367.8125 L 202.316406 367.8125 L 202.316406 412.007812 L 0 412.007812 Z M 0 367.8125 "/></clipPath><clipPath id="37c5e6edf5"><path d="M 607.316406 157.890625 L 810 157.890625 L 810 202.085938 L 607.316406 202.085938 Z M 607.316406 157.890625 "/></clipPath></defs><g id="ebb6b8c4dd"><g clip-rule="nonzero" clip-path="url(#591e1f3fc4)"><path style=" stroke:none;fill-rule:nonzero;fill:#ff5750;fill-opacity:1;" d="M 201.953125 146.84375 L 404.625 146.84375 L 404.625 191.039062 L 201.953125 191.039062 Z M 201.953125 146.84375 "/></g><g clip-rule="nonzero" clip-path="url(#0a75da3a36)"><path style=" stroke:none;fill-rule:nonzero;fill:#ff5750;fill-opacity:1;" d="M -0.726562 102.648438 L 201.945312 102.648438 L 201.945312 146.84375 L -0.726562 146.84375 Z M -0.726562 102.648438 "/></g><g clip-rule="nonzero" clip-path="url(#9f775850fb)"><path style=" stroke:none;fill-rule:nonzero;fill:#ff5750;fill-opacity:1;" d="M 404.636719 202.085938 L 607.308594 202.085938 L 607.308594 246.28125 L 404.636719 246.28125 Z M 404.636719 202.085938 "/></g><g clip-rule="nonzero" clip-path="url(#f58479340b)"><path style=" stroke:none;fill-rule:nonzero;fill:#ff5750;fill-opacity:1;" d="M 607.316406 102.648438 L 809.988281 102.648438 L 809.988281 146.84375 L 607.316406 146.84375 Z M 607.316406 102.648438 "/></g><g clip-rule="nonzero" clip-path="url(#082fa39568)"><path style=" stroke:none;fill-rule:nonzero;fill:#ff5750;fill-opacity:1;" d="M -0.363281 224.183594 L 202.308594 224.183594 L 202.308594 268.378906 L -0.363281 268.378906 Z M -0.363281 224.183594 "/></g><g clip-rule="nonzero" clip-path="url(#ce69313d5d)"><path style=" stroke:none;fill-rule:nonzero;fill:#ff5750;fill-opacity:1;" d="M 201.953125 268.378906 L 404.625 268.378906 L 404.625 312.570312 L 201.953125 312.570312 Z M 201.953125 268.378906 "/></g><g clip-rule="nonzero" clip-path="url(#cebda04c1d)"><path style=" stroke:none;fill-rule:nonzero;fill:#ff5750;fill-opacity:1;" d="M 404.636719 323.621094 L 607.308594 323.621094 L 607.308594 367.8125 L 404.636719 367.8125 Z M 404.636719 323.621094 "/></g><g clip-rule="nonzero" clip-path="url(#82d047e45a)"><path style=" stroke:none;fill-rule:nonzero;fill:#ff5750;fill-opacity:1;" d="M 607.316406 367.8125 L 809.988281 367.8125 L 809.988281 412.007812 L 607.316406 412.007812 Z M 607.316406 367.8125 "/></g><g clip-rule="nonzero" clip-path="url(#a54acc3a7e)"><path style=" stroke:none;fill-rule:nonzero;fill:#ff5750;fill-opacity:1;" d="M 606.953125 257.328125 L 809.625 257.328125 L 809.625 301.523438 L 606.953125 301.523438 Z M 606.953125 257.328125 "/></g><g clip-rule="nonzero" clip-path="url(#8a1d4706b2)"><path style=" stroke:none;fill-rule:nonzero;fill:#ff5750;fill-opacity:1;" d="M -0.363281 312.570312 L 202.308594 312.570312 L 202.308594 356.765625 L -0.363281 356.765625 Z M -0.363281 312.570312 "/></g><g clip-rule="nonzero" clip-path="url(#837aba9b94)"><path style=" stroke:none;fill-rule:nonzero;fill:#ff5750;fill-opacity:1;" d="M -0.363281 367.8125 L 202.308594 367.8125 L 202.308594 412.007812 L -0.363281 412.007812 Z M -0.363281 367.8125 "/></g><g clip-rule="nonzero" clip-path="url(#37c5e6edf5)"><path style=" stroke:none;fill-rule:nonzero;fill:#ff5750;fill-opacity:1;" d="M 607.316406 157.890625 L 809.988281 157.890625 L 809.988281 202.085938 L 607.316406 202.085938 Z M 607.316406 157.890625 "/></g><g style="fill:#ff5750;fill-opacity:1;"><g transform="translate(1.022768, 551.429456)"><path style="stroke:none" d="M 92.0625 -72.953125 C 92.0625 -59.734375 88.953125 -49.925781 82.734375 -43.53125 C 76.523438 -37.132812 66.441406 -33.9375 52.484375 -33.9375 L 34.25 -33.9375 L 34.25 0 L 11.890625 0 L 11.890625 -109.734375 L 53.125 -109.734375 C 65.550781 -109.734375 75.144531 -106.835938 81.90625 -101.046875 C 88.675781 -95.265625 92.0625 -85.898438 92.0625 -72.953125 Z M 68.984375 -72.796875 C 68.984375 -78.972656 67.273438 -83.4375 63.859375 -86.1875 C 60.453125 -88.9375 54.3125 -90.3125 45.4375 -90.3125 L 34.25 -90.3125 L 34.25 -53.4375 L 43.375 -53.4375 C 51.5625 -53.4375 57.226562 -54.003906 60.375 -55.140625 C 63.519531 -56.285156 65.738281 -58.203125 67.03125 -60.890625 C 68.332031 -63.585938 68.984375 -67.554688 68.984375 -72.796875 Z M 68.984375 -72.796875 "/></g></g><g style="fill:#ff5750;fill-opacity:1;"><g transform="translate(99.260532, 551.429456)"><path style="stroke:none" d="M 73.578125 0 L 45.59375 -41.546875 L 34.25 -41.546875 L 34.25 0 L 11.890625 0 L 11.890625 -109.734375 L 51.78125 -109.734375 C 65.894531 -109.734375 76.210938 -107.195312 82.734375 -102.125 C 89.265625 -97.050781 92.53125 -88.726562 92.53125 -77.15625 C 92.53125 -67.789062 90.5625 -60.332031 86.625 -54.78125 C 82.6875 -49.238281 77.097656 -45.703125 69.859375 -44.171875 L 99.1875 0 Z M 69.859375 -76.203125 C 69.859375 -81.804688 68.441406 -85.554688 65.609375 -87.453125 C 62.785156 -89.359375 58.125 -90.3125 51.625 -90.3125 L 34.25 -90.3125 L 34.25 -61.0625 L 50.671875 -61.0625 C 55.691406 -61.0625 59.546875 -61.535156 62.234375 -62.484375 C 64.929688 -63.429688 66.875 -64.910156 68.0625 -66.921875 C 69.257812 -68.929688 69.859375 -72.023438 69.859375 -76.203125 Z M 69.859375 -76.203125 "/></g></g><g style="fill:#ff5750;fill-opacity:1;"><g transform="translate(201.066242, 551.429456)"><path style="stroke:none" d="M 101.328125 -54.875 C 101.328125 -35.789062 97.296875 -21.488281 89.234375 -11.96875 C 81.179688 -2.457031 69.460938 2.296875 54.078125 2.296875 C 37.847656 2.296875 25.910156 -2.707031 18.265625 -12.71875 C 10.628906 -22.738281 6.8125 -36.789062 6.8125 -54.875 C 6.8125 -73.050781 10.628906 -87.125 18.265625 -97.09375 C 25.910156 -107.0625 37.847656 -112.046875 54.078125 -112.046875 C 70.410156 -112.046875 82.367188 -107.0625 89.953125 -97.09375 C 97.535156 -87.125 101.328125 -73.050781 101.328125 -54.875 Z M 78.265625 -54.875 C 78.265625 -67.875 76.425781 -77.347656 72.75 -83.296875 C 69.070312 -89.242188 62.847656 -92.21875 54.078125 -92.21875 C 45.304688 -92.21875 39.082031 -89.242188 35.40625 -83.296875 C 31.726562 -77.347656 29.890625 -67.875 29.890625 -54.875 C 29.890625 -41.863281 31.753906 -32.382812 35.484375 -26.4375 C 39.210938 -20.5 45.410156 -17.53125 54.078125 -17.53125 C 62.847656 -17.53125 69.070312 -20.5 72.75 -26.4375 C 76.425781 -32.382812 78.265625 -41.863281 78.265625 -54.875 Z M 78.265625 -54.875 "/></g></g><g style="fill:#ff5750;fill-opacity:1;"><g transform="translate(305.171208, 551.429456)"><path style="stroke:none" d="M 58.921875 -89.28125 L 58.921875 0 L 36.546875 0 L 36.546875 -89.28125 L 2.78125 -89.28125 L 2.78125 -109.734375 L 92.6875 -109.734375 L 92.6875 -89.28125 Z M 58.921875 -89.28125 "/></g></g><g style="fill:#ff5750;fill-opacity:1;"><g transform="translate(396.590104, 551.429456)"><path style="stroke:none" d="M 101.328125 -54.875 C 101.328125 -35.789062 97.296875 -21.488281 89.234375 -11.96875 C 81.179688 -2.457031 69.460938 2.296875 54.078125 2.296875 C 37.847656 2.296875 25.910156 -2.707031 18.265625 -12.71875 C 10.628906 -22.738281 6.8125 -36.789062 6.8125 -54.875 C 6.8125 -73.050781 10.628906 -87.125 18.265625 -97.09375 C 25.910156 -107.0625 37.847656 -112.046875 54.078125 -112.046875 C 70.410156 -112.046875 82.367188 -107.0625 89.953125 -97.09375 C 97.535156 -87.125 101.328125 -73.050781 101.328125 -54.875 Z M 78.265625 -54.875 C 78.265625 -67.875 76.425781 -77.347656 72.75 -83.296875 C 69.070312 -89.242188 62.847656 -92.21875 54.078125 -92.21875 C 45.304688 -92.21875 39.082031 -89.242188 35.40625 -83.296875 C 31.726562 -77.347656 29.890625 -67.875 29.890625 -54.875 C 29.890625 -41.863281 31.753906 -32.382812 35.484375 -26.4375 C 39.210938 -20.5 45.410156 -17.53125 54.078125 -17.53125 C 62.847656 -17.53125 69.070312 -20.5 72.75 -26.4375 C 76.425781 -32.382812 78.265625 -41.863281 78.265625 -54.875 Z M 78.265625 -54.875 "/></g></g><g style="fill:#ff5750;fill-opacity:1;"><g transform="translate(504.738861, 551.429456)"><path style="stroke:none" d="M 101.171875 -18.15625 C 96.472656 -11.125 90.695312 -5.957031 83.84375 -2.65625 C 77 0.644531 68.582031 2.296875 58.59375 2.296875 C 24.601562 2.296875 7.609375 -16.757812 7.609375 -54.875 C 7.609375 -74.375 11.914062 -88.773438 20.53125 -98.078125 C 29.15625 -107.390625 41.578125 -112.046875 57.796875 -112.046875 C 68.535156 -112.046875 77.285156 -110.234375 84.046875 -106.609375 C 90.816406 -102.984375 95.972656 -98.238281 99.515625 -92.375 L 82.140625 -78.890625 C 79.609375 -82.703125 77.285156 -85.453125 75.171875 -87.140625 C 73.054688 -88.828125 70.648438 -90.09375 67.953125 -90.9375 C 65.253906 -91.789062 62.03125 -92.21875 58.28125 -92.21875 C 49.289062 -92.21875 42.441406 -89.347656 37.734375 -83.609375 C 33.035156 -77.878906 30.6875 -68.300781 30.6875 -54.875 C 30.6875 -42.34375 32.890625 -32.984375 37.296875 -26.796875 C 41.710938 -20.617188 48.757812 -17.53125 58.4375 -17.53125 C 64.9375 -17.53125 69.992188 -18.769531 73.609375 -21.25 C 77.234375 -23.738281 80.53125 -27.039062 83.5 -31.15625 Z M 101.171875 -18.15625 "/></g></g><g style="fill:#ff5750;fill-opacity:1;"><g transform="translate(610.429703, 551.429456)"><path style="stroke:none" d="M 101.328125 -54.875 C 101.328125 -35.789062 97.296875 -21.488281 89.234375 -11.96875 C 81.179688 -2.457031 69.460938 2.296875 54.078125 2.296875 C 37.847656 2.296875 25.910156 -2.707031 18.265625 -12.71875 C 10.628906 -22.738281 6.8125 -36.789062 6.8125 -54.875 C 6.8125 -73.050781 10.628906 -87.125 18.265625 -97.09375 C 25.910156 -107.0625 37.847656 -112.046875 54.078125 -112.046875 C 70.410156 -112.046875 82.367188 -107.0625 89.953125 -97.09375 C 97.535156 -87.125 101.328125 -73.050781 101.328125 -54.875 Z M 78.265625 -54.875 C 78.265625 -67.875 76.425781 -77.347656 72.75 -83.296875 C 69.070312 -89.242188 62.847656 -92.21875 54.078125 -92.21875 C 45.304688 -92.21875 39.082031 -89.242188 35.40625 -83.296875 C 31.726562 -77.347656 29.890625 -67.875 29.890625 -54.875 C 29.890625 -41.863281 31.753906 -32.382812 35.484375 -26.4375 C 39.210938 -20.5 45.410156 -17.53125 54.078125 -17.53125 C 62.847656 -17.53125 69.070312 -20.5 72.75 -26.4375 C 76.425781 -32.382812 78.265625 -41.863281 78.265625 -54.875 Z M 78.265625 -54.875 "/></g></g><g style="fill:#ff5750;fill-opacity:1;"><g transform="translate(718.578414, 551.429456)"><path style="stroke:none" d="M 11.890625 0 L 11.890625 -109.734375 L 34.25 -109.734375 L 34.25 -20.453125 L 80.40625 -20.453125 L 80.40625 0 Z M 11.890625 0 "/></g></g><g style="fill:#ff5750;fill-opacity:1;"><g transform="translate(0.0117222, 697.001241)"><path style="stroke:none" d="M 48.671875 2.265625 C 35.648438 2.265625 25.582031 -2.039062 18.46875 -10.65625 C 11.363281 -19.28125 7.8125 -31.5625 7.8125 -47.5 C 7.8125 -67.914062 11.640625 -83.503906 19.296875 -94.265625 C 26.953125 -105.023438 38.125 -110.40625 52.8125 -110.40625 C 66.71875 -110.40625 77.007812 -107.460938 83.6875 -101.578125 L 71.171875 -84.625 C 68.617188 -86.863281 65.910156 -88.566406 63.046875 -89.734375 C 60.179688 -90.910156 56.769531 -91.5 52.8125 -91.5 C 45.78125 -91.5 40.660156 -89.097656 37.453125 -84.296875 C 34.253906 -79.503906 32.210938 -72.679688 31.328125 -63.828125 C 35.492188 -66.640625 39.226562 -68.59375 42.53125 -69.6875 C 45.84375 -70.78125 49.789062 -71.328125 54.375 -71.328125 C 64.53125 -71.328125 72.59375 -68.210938 78.5625 -61.984375 C 84.53125 -55.765625 87.515625 -46.796875 87.515625 -35.078125 C 87.515625 -23.515625 84.019531 -14.398438 77.03125 -7.734375 C 70.050781 -1.066406 60.597656 2.265625 48.671875 2.265625 Z M 48.828125 -16.640625 C 53.722656 -16.640625 57.71875 -17.941406 60.8125 -20.546875 C 63.914062 -23.148438 65.46875 -27.8125 65.46875 -34.53125 C 65.46875 -40.050781 63.929688 -44.453125 60.859375 -47.734375 C 57.785156 -51.015625 53.671875 -52.65625 48.515625 -52.65625 C 44.453125 -52.65625 40.867188 -51.988281 37.765625 -50.65625 C 34.671875 -49.332031 32.316406 -48.019531 30.703125 -46.71875 C 30.703125 -38.75 31.300781 -32.890625 32.5 -29.140625 C 33.695312 -25.390625 35.597656 -22.367188 38.203125 -20.078125 C 40.804688 -17.785156 44.347656 -16.640625 48.828125 -16.640625 Z M 48.828125 -16.640625 "/></g></g><g style="fill:#ff5750;fill-opacity:1;"><g transform="translate(94.078811, 697.001241)"><path style="stroke:none" d="M 85.953125 -35.546875 C 85.953125 -23.773438 82.1875 -14.53125 74.65625 -7.8125 C 67.125 -1.09375 56.273438 2.265625 42.109375 2.265625 C 24.453125 2.265625 11.691406 -3.671875 3.828125 -15.546875 L 21.40625 -27.96875 C 25.414062 -20.9375 32.210938 -17.421875 41.796875 -17.421875 C 56.171875 -17.421875 63.359375 -23.617188 63.359375 -36.015625 C 63.359375 -41.222656 61.46875 -45.320312 57.6875 -48.3125 C 53.914062 -51.3125 48.671875 -52.8125 41.953125 -52.8125 C 34.765625 -52.8125 29.320312 -50.882812 25.625 -47.03125 L 10.234375 -47.03125 L 16.640625 -108.140625 L 79.84375 -108.140625 L 79.84375 -87.984375 L 34.21875 -87.984375 L 32.03125 -68.984375 C 36.976562 -71.015625 42.472656 -72.03125 48.515625 -72.03125 C 60.078125 -72.03125 69.207031 -68.929688 75.90625 -62.734375 C 82.601562 -56.535156 85.953125 -47.472656 85.953125 -35.546875 Z M 85.953125 -35.546875 "/></g></g><g style="fill:#ff5750;fill-opacity:1;"><g transform="translate(188.145899, 697.001241)"><path style="stroke:none" d="M 8.28125 0 L 8.28125 -18.4375 C 16.769531 -25.570312 24.503906 -32.394531 31.484375 -38.90625 C 38.460938 -45.414062 43.851562 -50.816406 47.65625 -55.109375 C 51.457031 -59.410156 54.410156 -63.523438 56.515625 -67.453125 C 58.628906 -71.390625 59.6875 -75.519531 59.6875 -79.84375 C 59.6875 -83.238281 58.410156 -85.925781 55.859375 -87.90625 C 53.304688 -89.882812 49.789062 -90.875 45.3125 -90.875 C 40.46875 -90.875 36.507812 -89.753906 33.4375 -87.515625 C 30.363281 -85.273438 27.8125 -82.613281 25.78125 -79.53125 L 7.96875 -92.046875 C 12.394531 -98.660156 17.640625 -103.375 23.703125 -106.1875 C 29.773438 -109 37.34375 -110.40625 46.40625 -110.40625 C 57.550781 -110.40625 66.34375 -107.800781 72.78125 -102.59375 C 79.21875 -97.382812 82.4375 -90.066406 82.4375 -80.640625 C 82.4375 -73.703125 81.171875 -67.613281 78.640625 -62.375 C 76.109375 -57.144531 72.507812 -52.066406 67.84375 -47.140625 C 63.1875 -42.222656 57.378906 -36.796875 50.421875 -30.859375 C 43.472656 -24.921875 39.191406 -21.351562 37.578125 -20.15625 L 85.953125 -20.15625 L 85.953125 0 Z M 8.28125 0 "/></g></g><g style="fill:#ff5750;fill-opacity:1;"><g transform="translate(282.212988, 697.001241)"><path style="stroke:none" d="M 92.203125 -54.0625 C 92.203125 -34.632812 88.785156 -20.363281 81.953125 -11.25 C 75.128906 -2.132812 64.453125 2.421875 49.921875 2.421875 C 35.492188 2.421875 24.867188 -2.132812 18.046875 -11.25 C 11.222656 -20.363281 7.8125 -34.582031 7.8125 -53.90625 C 7.8125 -73.238281 11.222656 -87.488281 18.046875 -96.65625 C 24.867188 -105.820312 35.492188 -110.40625 49.921875 -110.40625 C 64.453125 -110.40625 75.128906 -105.847656 81.953125 -96.734375 C 88.785156 -87.617188 92.203125 -73.394531 92.203125 -54.0625 Z M 69.453125 -54.0625 C 69.453125 -66.976562 67.875 -76.445312 64.71875 -82.46875 C 61.570312 -88.488281 56.640625 -91.5 49.921875 -91.5 C 43.203125 -91.5 38.289062 -88.460938 35.1875 -82.390625 C 32.09375 -76.316406 30.546875 -66.820312 30.546875 -53.90625 C 30.546875 -40.988281 32.09375 -31.519531 35.1875 -25.5 C 38.289062 -19.488281 43.203125 -16.484375 49.921875 -16.484375 C 56.640625 -16.484375 61.570312 -19.515625 64.71875 -25.578125 C 67.875 -31.648438 69.453125 -41.144531 69.453125 -54.0625 Z M 69.453125 -54.0625 "/></g></g><g style="fill:#ff5750;fill-opacity:1;"><g transform="translate(497.423594, 697.001241)"><path style="stroke:none" d="M 2.109375 0 L 37.890625 -108.140625 L 66.5625 -108.140625 L 102.4375 0 L 79.84375 0 L 72.65625 -21.953125 L 31.015625 -21.953125 L 23.984375 0 Z M 37.265625 -41.25 L 66.40625 -41.25 L 51.875 -85.953125 Z M 37.265625 -41.25 "/></g></g><g style="fill:#ff5750;fill-opacity:1;"><g transform="translate(601.881815, 697.001241)"><path style="stroke:none" d="M 80.328125 -17.890625 L 80.328125 0 L 59.21875 0 L 59.21875 -17.890625 L 4.921875 -17.890625 L 4.921875 -38.203125 L 57.734375 -108.140625 L 80.328125 -108.140625 L 80.328125 -36.796875 L 93.609375 -36.796875 L 93.609375 -17.890625 Z M 59.21875 -79.21875 L 26.40625 -36.796875 L 59.21875 -36.796875 Z M 59.21875 -79.21875 "/></g></g><g style="fill:#ff5750;fill-opacity:1;"><g transform="translate(701.886704, 697.001241)"><path style="stroke:none" d="M 80.328125 -17.890625 L 80.328125 0 L 59.21875 0 L 59.21875 -17.890625 L 4.921875 -17.890625 L 4.921875 -38.203125 L 57.734375 -108.140625 L 80.328125 -108.140625 L 80.328125 -36.796875 L 93.609375 -36.796875 L 93.609375 -17.890625 Z M 59.21875 -79.21875 L 26.40625 -36.796875 L 59.21875 -36.796875 Z M 59.21875 -79.21875 "/></g></g><g style="fill:#ff5750;fill-opacity:1;"><g transform="translate(403.110823, 715.095606)"><path style="stroke:none" d="M 80.4375 -76.125 L 12.421875 -76.125 L 12.421875 -93.578125 L 80.4375 -93.578125 Z M 80.4375 -76.125 "/></g></g></g></svg>